# xmcd
#
# Track frame offsets: 
#        151
#        28485
#        58839
#        75378
#        98097
#        123915
#        146505
#        167776
#        195276
#        211833
#
# Disc length: 3204 seconds
#
# Revision: 0
# Processed by: cddbd v1.5.1PL0 Copyright (c) Steve Scherf et al.
# Submitted via: ExactAudioCopy v0.95b3
#
DISCID=820c820a
DTITLE=Free - Talking of Heartbreaker
DYEAR=1972
DGENRE=Blues
TTITLE0=I'm On The Run
TTITLE1=Heartbreaker
TTITLE2=Soldier Boy
TTITLE3=Come Together in the Morning
TTITLE4=Everyday I Have The Blues
TTITLE5=Child
TTITLE6=Wishing Well
TTITLE7=Seven Angels
TTITLE8=Fire and Water
TTITLE9=Allright Now
EXTD=
EXTT0=
EXTT1=
EXTT2=
EXTT3=
EXTT4=
EXTT5=
EXTT6=
EXTT7=
EXTT8=
EXTT9=
PLAYORDER=
